<svg height="512" viewBox="0 0 110 110" width="512" xmlns="http://www.w3.org/2000/svg"><g fill="#ff5366"><path d="M74.594 20.249c-1.72-3.916-5.9-6.52-9.96-8.192a25.225 25.225 0 00-19.27 0c-4.06 1.672-8.24 4.276-9.954 8.192-3.789 8.642-1.894 16.22 0 24.863 1.895 8.643 4.854 8.168 4.854 8.168s.234 8.642 1.185 10.892c.944 2.25 1.774.83 5.088 4.733 3.314 3.91 8.462 2.25 8.462 2.25s5.148 1.66 8.462-2.25c3.32-3.903 4.144-2.484 5.094-4.733.945-2.25 1.185-10.892 1.185-10.892s2.96.475 4.854-8.168c1.894-8.642 3.783-16.22 0-24.863zM52.118 44.342c1.022-5.172 2.88-3.807 2.88-3.807s1.865-1.365 2.882 3.807c1.016 5.173-.217 8.12-2.881 6.532-2.664 1.588-3.897-1.36-2.881-6.532zm-12.84-5.966c-.56-4.096 5.136-5.617 5.136-5.617s4.739-1.047 6.585 3.049-2.249 6.826-2.249 6.826-2.003.963-4.818 1.606c-2.808.644-4.095-1.768-4.655-5.864zm6.08 17.297c-2.76-1.762-2.105-4.486-1.925-5.064.006.169.193.536 1.323 1.233 1.66 1.023.602 3.831.602 3.831zM62.012 60.1c-1.444 1.251-6.075 1.047-7.332.968-1.257.079-5.888.283-7.331-.968-1.678-1.461-1.023-4.12-1.023-4.12 1.504.764 4.872.523 6.94.277a10.707 10.707 0 012.196-.03c2.015.174 6.213.445 7.566-.247 0 0 .656 2.659-1.016 4.12zm1.99-4.427s-1.064-2.808.596-3.83c1.137-.698 1.323-1.065 1.33-1.234.18.578.835 3.302-1.926 5.064zm6.081-17.297c-.565 4.096-1.846 6.508-4.661 5.864-2.809-.643-4.818-1.606-4.818-1.606s-4.095-2.73-2.25-6.826c1.853-4.096 6.587-3.05 6.587-3.05s5.701 1.522 5.142 5.618z"/><path d="M65.927 50.603a.48.48 0 01-.03-.096c.012.012.03.042.03.096zm-22.464-.096a.48.48 0 01-.03.096c0-.054.018-.084.03-.096zm-.668 22.304l7.325 3.54 13.32 6.435 7.324 3.539c1.705.823 3.657 1.107 5.484.612 1.592-.432 3.485.2 4.552 2.294.575 2.848-1.219 4.72-3.254 4.913 1.113 1.715.762 4.284-1.827 5.603-2.304.466-3.975-.625-4.626-2.14-.748-1.74-2.183-3.092-3.887-3.916l-7.326-3.54-13.32-6.435-7.325-3.539c-1.704-.823-3.656-1.107-5.483-.612-1.592.432-3.485-.199-4.552-2.294-.575-2.847 1.219-4.72 3.254-4.913-1.113-1.715-.762-4.283 1.826-5.602 2.304-.467 3.975.624 4.627 2.14.748 1.739 2.183 3.092 3.888 3.915z"/><path d="M42.795 93.69l7.325-3.538 13.32-6.436 7.324-3.539c1.705-.823 3.657-1.106 5.484-.611 1.592.43 3.485-.2 4.552-2.295.575-2.848-1.219-4.72-3.254-4.913 1.113-1.715.762-4.284-1.827-5.602-2.304-.467-3.975.625-4.626 2.14-.748 1.739-2.183 3.092-3.887 3.915l-7.326 3.54-13.32 6.435-7.325 3.539c-1.704.823-3.656 1.107-5.483.612-1.592-.432-3.485.2-4.552 2.294-.575 2.848 1.219 4.72 3.254 4.913-1.113 1.715-.762 4.283 1.826 5.603 2.304.466 3.975-.625 4.627-2.14.748-1.74 2.183-3.093 3.888-3.916z"/></g></svg>